<?xml version="1.0" encoding="utf-8"?>
<!-- Generator: Adobe Illustrator 27.0.1, SVG Export Plug-In . SVG Version: 6.00 Build 0)  -->
<svg version="1.1" id="Layer_1" xmlns="http://www.w3.org/2000/svg" xmlns:xlink="http://www.w3.org/1999/xlink" x="0px" y="0px"
	 viewBox="0 0 353.7 411" style="enable-background:new 0 0 353.7 411;" xml:space="preserve">
<style type="text/css">
	.st0{fill:none;stroke:#FFFFFF;stroke-width:3;stroke-linecap:round;stroke-miterlimit:10;}
</style>
<g>
	<path class="st0" d="M338.4,311.6c0,0-122.9-31.3-166.4-110.3c-3.3-6.1-9.3-10.4-16.1-11.3c-8.2-1.2-20.2-0.2-35.1,8.3
		c0,0-6.7,28.8-60,15s-51.1,9.2-51.1,9.2S13,183.2,54,189.6l-37.6-34l44.3,17.4c0,0-11.8-20.2-6.2-57.8c0,0,4.5,42.1,30.9,40.4
		c26.4-1.7,47.1,24.1,35.3,42.6"/>
	<path class="st0" d="M158.3,190.5c0,0-32-37.1-11.8-67.4S144.3,9.2,144.3,9.2s9,50.8-19.1,56.4l-21.9-37l-3.9,51.6
		c0,0-16.3-24.7-48.8-16.3c0,0,38.8,13.5,44.7,42.6c2.2,10.7,9.2,19.8,19.3,24c8.8,3.7,19.9,3.8,32-7.4"/>
	<path class="st0" d="M213.1,249.3c0,0-5.4-31.1,4.7-38.4c0,0,20.2,6.2,35.9-26.9s30.3-39.8,42.6-34.8c0,0-17.9-15.1-33.3-0.1
		l13.2-36.2l-19.9,27.7c0,0-0.2-27.7-17.3-27.7c0,0,14.1,21.7,0,30.9c-14.1,9.2-55.1,35.5-21.2,67.2"/>
	<path class="st0" d="M258.6,279.5c0,0-94.3-40.9-193.3,9.5c0,0-36.8,17.7-55.7,4.9c0,0,29.2,80.9,80.9,102.1
		c51.7,21.2,121.6-23.9,141-72.5c0,0,26.2-35,56.2-29.9"/>
	<path class="st0" d="M270.6,285.7c0,0-62.4,8.6-101.3,32.1c-38.9,23.4-64.4,22.7-97.4,8.3"/>
	<path class="st0" d="M53.2,141.5c-4.4-2.2-9.4-3.5-14.6-3.5c-17.9,0-32.4,14.5-32.4,32.4c0,11.5,6,21.7,15.1,27.4"/>
	<path class="st0" d="M84.9,67.6c-0.7-2.7-1.1-5.6-1.1-8.6c0-13.3,8-24.8,19.5-29.7c0.1-0.1,0.2-0.1,0.4-0.2
		c3.9-1.6,8.1-2.5,12.6-2.5c11.9,0,22.3,6.4,28,16"/>
	<path class="st0" d="M264.4,147.8c-0.3-0.1-0.6-0.1-0.9-0.2"/>
	<path class="st0" d="M250,118.5c3.4-6.3,10-10.5,17.7-10.5c11.1,0,20.1,9,20.1,20.1c0,5.8-2.4,10.9-6.3,14.6"/>
</g>
</svg>
