<?xml version="1.0" encoding="utf-8"?>
<!-- Generator: Adobe Illustrator 27.0.1, SVG Export Plug-In . SVG Version: 6.00 Build 0)  -->
<svg version="1.1" id="Layer_1" xmlns="http://www.w3.org/2000/svg" xmlns:xlink="http://www.w3.org/1999/xlink" x="0px" y="0px"
	 viewBox="0 0 445.8 279.5" style="enable-background:new 0 0 445.8 279.5;" xml:space="preserve">
<style type="text/css">
	.st0{fill:none;stroke:#FFFFFF;stroke-width:3;stroke-linecap:round;stroke-miterlimit:10;}
</style>
<g>
	<path class="st0" d="M350.1,131.1c-6.9-10.8,5.2-25.9,20.6-24.9c15.4,1,18.1-23.6,18.1-23.6c3.3,22-3.6,33.8-3.6,33.8l25.9-10.2
		l-22,19.9c24-3.7,25.9,19.2,25.9,19.2s1.3-13.4-29.9-5.4S350,131.1,350.1,131.1c-8.8-4.9-15.8-5.5-20.6-4.8c-4,0.5-7.5,3-9.4,6.6
		c-25.4,46.2-97.2,64.4-97.2,64.4"/>
	<path class="st0" d="M334.9,87.2c7.1,6.5,13.6,6.5,18.7,4.3c5.9-2.5,10-7.8,11.3-14c3.4-17,26.1-24.9,26.1-24.9
		c-19-4.9-28.5,9.5-28.5,9.5L360.2,32l-12.8,21.6c-16.4-3.3-11.2-33-11.2-33S323.2,69.5,334.9,87.2c11.9,17.7-6.8,39.4-6.8,39.4"/>
	<path class="st0" d="M293.3,138.6c19.8-18.5-4.1-33.9-12.4-39.3c-8.2-5.4,0-18.1,0-18.1c-10,0-10.1,16.2-10.1,16.2l-11.6-16.2
		l7.7,21.2c-9-8.8-19.5,0.1-19.5,0.1c7.2-2.9,15.7,1,24.9,20.3S293.3,138.5,293.3,138.6c5.9,4.2,2.7,22.4,2.7,22.4"/>
	<path class="st0" d="M252.5,186.8c17.5-3,32.8,17.5,32.8,17.5c11.3,28.4,52.2,54.7,82.4,42.4S415,187,415,187
		c-11,7.5-32.5-2.9-32.5-2.9c-57.8-29.4-112.9-5.6-112.9-5.6"/>
	<path class="st0" d="M378.6,205.8c-19.3,8.4-34.2,8.8-56.9-4.8c-22.7-13.7-59.2-18.8-59.2-18.8"/>
	<path class="st0" d="M408.1,130.8c5.3-3.3,8.8-9.3,8.8-16c0-10.5-8.5-18.9-18.9-18.9c-3,0-6,0.8-8.5,2"/>
	<path class="st0" d="M336.3,40.2c3.3-5.6,9.4-9.3,16.4-9.3c2.6,0,5.1,0.5,7.4,1.5c0.1,0.1,0.2,0.1,0.2,0.1
		c6.7,2.9,11.4,9.6,11.4,17.4c0,1.8-0.2,3.4-0.6,5"/>
	<path class="st0" d="M266.6,101.5c-0.2,0.1-0.4,0.1-0.5,0.1"/>
	<path class="st0" d="M256.1,98.7c-2.3-2.2-3.7-5.1-3.7-8.5c0-6.5,5.3-11.7,11.7-11.7c4.5,0,8.4,2.5,10.3,6.1"/>
</g>
<g>
	<path class="st0" d="M222.9,197.3c0,0-71.8-18.3-97.2-64.4c-1.9-3.6-5.4-6.1-9.4-6.6c-4.8-0.7-11.8-0.1-20.5,4.8
		c0,0-3.9,16.8-35.1,8.8s-29.9,5.4-29.9,5.4s1.9-23,25.9-19.2l-22-19.9l25.9,10.2c0,0-6.9-11.8-3.6-33.8c0,0,2.6,24.6,18.1,23.6
		c15.4-1,27.5,14.1,20.6,24.9"/>
	<path class="st0" d="M117.6,126.6c0,0-18.7-21.7-6.9-39.4s-1.3-66.6-1.3-66.6s5.3,29.7-11.2,33L85.5,32l-2.3,30.1
		c0,0-9.5-14.4-28.5-9.5c0,0,22.7,7.9,26.1,24.9c1.3,6.3,5.4,11.6,11.3,14c5.1,2.2,11.6,2.2,18.7-4.3"/>
	<path class="st0" d="M149.7,160.9c0,0-3.2-18.2,2.7-22.4c0,0,11.8,3.6,21-15.7c9.2-19.3,17.7-23.3,24.9-20.3c0,0-10.5-8.8-19.5-0.1
		l7.7-21.2l-11.6,16.2c0,0-0.1-16.2-10.1-16.2c0,0,8.2,12.7,0,18.1c-8.2,5.4-32.2,20.7-12.4,39.3"/>
	<path class="st0" d="M176.2,178.6c0,0-55.1-23.9-112.9,5.6c0,0-21.5,10.3-32.5,2.9c0,0,17.1,47.3,47.3,59.7s71-14,82.4-42.4
		c0,0,15.3-20.5,32.8-17.5"/>
	<path class="st0" d="M183.3,182.2c0,0-36.5,5-59.2,18.8c-22.7,13.7-37.6,13.3-56.9,4.8"/>
	<path class="st0" d="M56.2,98c-2.6-1.3-5.5-2-8.5-2c-10.5,0-18.9,8.5-18.9,18.9c0,6.7,3.5,12.7,8.8,16"/>
	<path class="st0" d="M74.8,54.8c-0.4-1.6-0.6-3.3-0.6-5c0-7.8,4.7-14.5,11.4-17.4c0.1-0.1,0.1-0.1,0.2-0.1c2.3-0.9,4.7-1.5,7.4-1.5
		c7,0,13,3.7,16.4,9.3"/>
	<path class="st0" d="M179.6,101.6c-0.2-0.1-0.4-0.1-0.5-0.1"/>
	<path class="st0" d="M171.2,84.5c2-3.7,5.8-6.1,10.3-6.1c6.5,0,11.7,5.3,11.7,11.7c0,3.4-1.4,6.4-3.7,8.5"/>
</g>
<g>
	<path class="st0" d="M-822.6,35.7c-11.8-18.5,8.9-44.3,35.3-42.6c26.4,1.7,30.9-40.4,30.9-40.4c5.6,37.6-6.2,57.8-6.2,57.8
		l44.3-17.4l-37.6,34c41-6.4,44.3,32.9,44.3,32.9s2.2-23-51.1-9.2c-53.3,13.8-60-15-60-15c-14.9-8.5-26.9-9.5-35.1-8.3
		c-6.8,0.9-12.8,5.2-16.1,11.3c-43.5,79-166.4,110.3-166.4,110.3"/>
	<path class="st0" d="M-848.5-39.4c12.1,11.2,23.2,11.1,32,7.4c10.1-4.2,17.1-13.3,19.3-24c5.9-29.1,44.7-42.6,44.7-42.6
		c-32.5-8.4-48.8,16.3-48.8,16.3l-3.9-51.6l-21.9,37c-28.1-5.6-19.1-56.4-19.1-56.4S-868.6-69.7-848.5-39.4
		C-828.2-9.1-860.2,28-860.2,28"/>
	<path class="st0" d="M-919.7,48.5c33.9-31.7-7.1-58-21.2-67.2c-14.1-9.2,0-30.9,0-30.9c-17.1,0-17.3,27.7-17.3,27.7l-19.9-27.7
		l13.2,36.2c-15.4-15-33.3,0.1-33.3,0.1c12.3-5,26.9,1.7,42.6,34.8S-919.7,48.4-919.7,48.5c10.1,7.2,4.7,38.3,4.7,38.3"/>
	<path class="st0" d="M-989.6,131.1c30-5.1,56.2,29.9,56.2,29.9c19.4,48.6,89.3,93.7,141,72.5c51.7-21.2,80.9-102.1,80.9-102.1
		c-18.9,12.8-55.7-4.9-55.7-4.9c-99-50.4-193.3-9.5-193.3-9.5"/>
	<path class="st0" d="M-773.8,163.6c-33,14.4-58.5,15.1-97.4-8.3c-38.9-23.5-101.3-32.1-101.3-32.1"/>
	<path class="st0" d="M-723.2,35.3c9.1-5.7,15.1-15.9,15.1-27.4c0-17.9-14.5-32.4-32.4-32.4c-5.2,0-10.2,1.3-14.6,3.5"/>
	<path class="st0" d="M-846.2-119.9c5.7-9.6,16.1-16,28-16c4.5,0,8.7,0.9,12.6,2.5c0.2,0.1,0.3,0.1,0.4,0.2
		c11.5,4.9,19.5,16.4,19.5,29.7c0,3-0.4,5.9-1.1,8.6"/>
	<path class="st0" d="M-965.4-14.9c-0.3,0.1-0.6,0.1-0.9,0.2"/>
	<path class="st0" d="M-983.4-19.8c-3.9-3.7-6.3-8.8-6.3-14.6c0-11.1,9-20.1,20.1-20.1c7.7,0,14.3,4.2,17.7,10.5"/>
</g>
<g>
	<path class="st0" d="M-1040.3,149.1c0,0-122.9-31.3-166.4-110.3c-3.3-6.1-9.3-10.4-16.1-11.3c-8.2-1.2-20.2-0.2-35.1,8.3
		c0,0-6.7,28.8-60,15C-1371.2,37-1369,60-1369,60s3.3-39.3,44.3-32.9l-37.6-34l44.3,17.4c0,0-11.8-20.2-6.2-57.8
		c0,0,4.5,42.1,30.9,40.4c26.4-1.7,47.1,24.1,35.3,42.6"/>
	<path class="st0" d="M-1220.4,28c0,0-32-37.1-11.8-67.4c20.2-30.3-2.2-113.9-2.2-113.9s9,50.8-19.1,56.4l-21.9-37l-3.9,51.6
		c0,0-16.3-24.7-48.8-16.3c0,0,38.8,13.5,44.7,42.6c2.2,10.7,9.2,19.8,19.3,24c8.8,3.7,19.9,3.8,32-7.4"/>
	<path class="st0" d="M-1165.6,86.8c0,0-5.4-31.1,4.7-38.4c0,0,20.2,6.2,35.9-26.9c15.7-33.1,30.3-39.8,42.6-34.8
		c0,0-17.9-15.1-33.3-0.1l13.2-36.2l-19.9,27.7c0,0-0.2-27.7-17.3-27.7c0,0,14.1,21.7,0,30.9c-14.1,9.2-55.1,35.5-21.2,67.2"/>
	<path class="st0" d="M-1120.1,117c0,0-94.3-40.9-193.3,9.5c0,0-36.8,17.7-55.7,4.9c0,0,29.2,80.9,80.9,102.1
		c51.7,21.2,121.6-23.9,141-72.5c0,0,26.2-35,56.2-29.9"/>
	<path class="st0" d="M-1108.1,123.2c0,0-62.4,8.6-101.3,32.1c-38.9,23.4-64.4,22.7-97.4,8.3"/>
	<path class="st0" d="M-1325.5-21c-4.4-2.2-9.4-3.5-14.6-3.5c-17.9,0-32.4,14.5-32.4,32.4c0,11.5,6,21.7,15.1,27.4"/>
	<path class="st0" d="M-1293.8-94.9c-0.7-2.7-1.1-5.6-1.1-8.6c0-13.3,8-24.8,19.5-29.7c0.1-0.1,0.2-0.1,0.4-0.2
		c3.9-1.6,8.1-2.5,12.6-2.5c11.9,0,22.3,6.4,28,16"/>
	<path class="st0" d="M-1114.3-14.7c-0.3-0.1-0.6-0.1-0.9-0.2"/>
	<path class="st0" d="M-1128.7-44c3.4-6.3,10-10.5,17.7-10.5c11.1,0,20.1,9,20.1,20.1c0,5.8-2.4,10.9-6.3,14.6"/>
</g>
</svg>
