<?xml version="1.0" encoding="utf-8"?>
<!-- Generator: Adobe Illustrator 27.0.1, SVG Export Plug-In . SVG Version: 6.00 Build 0)  -->
<svg version="1.1" id="Layer_1" xmlns="http://www.w3.org/2000/svg" xmlns:xlink="http://www.w3.org/1999/xlink" x="0px" y="0px"
	 viewBox="0 0 371.2 416" style="enable-background:new 0 0 371.2 416;" xml:space="preserve">
<style type="text/css">
	.st0{fill:none;stroke:#FFFFFF;stroke-width:3;stroke-linecap:round;stroke-miterlimit:10;}
</style>
<g>
	<path class="st0" d="M231.3,201.4c-11.8-18.5,8.9-44.3,35.3-42.6c26.4,1.7,30.9-40.4,30.9-40.4c5.6,37.6-6.2,57.8-6.2,57.8
		l44.3-17.4l-37.6,34c41-6.4,44.3,32.9,44.3,32.9s2.2-23-51.1-9.2S231.2,201.5,231.3,201.4c-15-8.4-27-9.4-35.2-8.2
		c-6.8,0.9-12.8,5.2-16.1,11.3c-43.5,79-166.4,110.3-166.4,110.3"/>
	<path class="st0" d="M205.4,126.3c12.1,11.2,23.2,11.1,32,7.4c10.1-4.2,17.1-13.3,19.3-24c5.9-29.1,44.7-42.6,44.7-42.6
		c-32.5-8.4-48.8,16.3-48.8,16.3l-3.9-51.6l-21.9,37c-28.1-5.6-19.1-56.4-19.1-56.4s-22.4,83.6-2.2,113.9s-11.8,67.4-11.8,67.4"/>
	<path class="st0" d="M134.2,214.2c33.9-31.7-7.1-58-21.2-67.2s0-30.9,0-30.9c-17.1,0-17.3,27.7-17.3,27.7l-19.9-27.7L89,152.3
		c-15.4-15-33.3,0.1-33.3,0.1c12.3-5,26.9,1.7,42.6,34.8S134.2,214.1,134.2,214.2c10.1,7.2,4.7,38.3,4.7,38.3"/>
	<path class="st0" d="M64.3,296.8c30-5.1,56.2,29.9,56.2,29.9c19.4,48.6,89.3,93.7,141,72.5s80.9-102.1,80.9-102.1
		c-18.9,12.8-55.7-4.9-55.7-4.9c-99-50.4-193.3-9.5-193.3-9.5"/>
	<path class="st0" d="M280.1,329.3c-33,14.4-58.5,15.1-97.4-8.3c-38.9-23.5-101.3-32.1-101.3-32.1"/>
	<path class="st0" d="M330.7,201c9.1-5.7,15.1-15.9,15.1-27.4c0-17.9-14.5-32.4-32.4-32.4c-5.2,0-10.2,1.3-14.6,3.5"/>
	<path class="st0" d="M207.7,45.8c5.7-9.6,16.1-16,28-16c4.5,0,8.7,0.9,12.6,2.5c0.2,0.1,0.3,0.1,0.4,0.2
		c11.5,4.9,19.5,16.4,19.5,29.7c0,3-0.4,5.9-1.1,8.6"/>
	<path class="st0" d="M88.5,150.8c-0.3,0.1-0.6,0.1-0.9,0.2"/>
	<path class="st0" d="M70.5,145.9c-3.9-3.7-6.3-8.8-6.3-14.6c0-11.1,9-20.1,20.1-20.1c7.7,0,14.3,4.2,17.7,10.5"/>
</g>
</svg>
